<svg xmlns="http://www.w3.org/2000/svg" viewBox="0 0 100 100" fill="none">
  <circle cx="50" cy="50" r="47" stroke="currentColor" stroke-width="3"/>
  <circle cx="50" cy="50" r="40" stroke="currentColor" stroke-width="1.5"/>
  <!-- Divider -->
  <line x1="50" y1="12" x2="50" y2="88" stroke="currentColor" stroke-width="1.5"/>
  <!-- Cross left -->
  <line x1="50" y1="50" x2="14" y2="50" stroke="currentColor" stroke-width="1.5"/>
  <line x1="32" y1="22" x2="32" y2="78" stroke="currentColor" stroke-width="1.5"/>
  <!-- Serpent right - clean curves -->
  <path d="M 63,25 C 72,30 75,40 70,48 C 65,56 60,55 62,63 C 64,71 72,72 70,80 C 68,85 62,88 62,88" stroke="currentColor" stroke-width="2" stroke-linecap="round" fill="none"/>
  <!-- Crown -->
  <path d="M 58,24 L 61,18 L 65,23 L 69,17 L 73,23 L 76,18 L 78,24" stroke="currentColor" stroke-width="1.2" fill="none" stroke-linejoin="round"/>
  <!-- Text arc -->
  <path id="top" d="M 18,55 A 38,38 0 0,1 82,55" fill="none"/>
</svg>