<svg xmlns="http://www.w3.org/2000/svg" viewBox="0 0 960 480" font-family="monospace" font-size="11">
  <title>BCM v7 — Audio System Wiring (Class AB)</title>
  <style>
    .box { fill: #f8f8f8; stroke: #333; stroke-width: 2; rx: 6; }
    .wire { stroke: #333; stroke-width: 1.5; fill: none; }
    .audio { stroke: #906; stroke-width: 2; fill: none; }
    .power { stroke: #c00; stroke-width: 2; fill: none; }
    .label { font-size: 11px; fill: #333; text-anchor: middle; }
    .title { font-size: 14px; font-weight: bold; fill: #111; }
    .pin { font-size: 9px; fill: #666; text-anchor: middle; }
    .comp { font-size: 10px; fill: #06c; text-anchor: middle; }
    .note { font-size: 9px; fill: #666; text-anchor: start; }
  </style>

  <text x="480" y="25" class="title" text-anchor="middle">Audio System — ES9038Q2M DAC → TDA7388 (4ch) + TDA2050 (sub) → 4.1 Speakers</text>

  <!-- PipeWire (software) -->
  <rect x="20" y="80" width="130" height="80" class="box" fill="#f0e0ff"/>
  <text x="85" y="100" class="label" font-weight="bold">PipeWire</text>
  <text x="85" y="118" class="pin">Audio routing</text>
  <text x="85" y="133" class="pin">10-band EQ</text>
  <text x="85" y="148" class="pin">Ducking mixer</text>

  <!-- Sources -->
  <rect x="20" y="185" width="130" height="90" class="box" fill="#e0e0ff"/>
  <text x="85" y="205" class="label" font-weight="bold">Sources</text>
  <text x="85" y="223" class="pin">Android Auto</text>
  <text x="85" y="238" class="pin">BT A2DP</text>
  <text x="85" y="253" class="pin">FM Radio (RTL-SDR)</text>
  <text x="85" y="268" class="pin">System TTS/Beeps</text>
  <line x1="85" y1="185" x2="85" y2="160" class="wire" stroke="#906"/>

  <!-- USB DAC -->
  <rect x="195" y="85" width="140" height="70" class="box" fill="#fff0ff"/>
  <text x="265" y="107" class="label" font-weight="bold">ES9038Q2M</text>
  <text x="265" y="122" class="pin">USB DAC Module</text>
  <text x="265" y="137" class="pin">32-bit / 129dB SNR</text>
  <text x="265" y="149" class="pin">~45-75 PLN</text>
  <line x1="150" y1="120" x2="195" y2="120" class="audio"/>
  <text x="172" y="115" class="pin">USB</text>

  <!-- RCA split point -->
  <line x1="335" y1="120" x2="390" y2="120" class="audio"/>
  <text x="362" y="112" class="pin">RCA L/R</text>
  <circle cx="390" cy="120" r="4" fill="#906"/>

  <!-- RCA to main amp -->
  <line x1="390" y1="120" x2="430" y2="100" class="audio"/>
  <!-- RCA to sub amp -->
  <line x1="390" y1="120" x2="430" y2="260" class="audio"/>
  <text x="405" y="195" class="pin" fill="#906">RCA</text>

  <!-- TDA7388 Main Amplifier -->
  <rect x="430" y="50" width="190" height="120" class="box" fill="#ffe0e0"/>
  <text x="525" y="72" class="label" font-weight="bold">TDA7388</text>
  <text x="525" y="87" class="label">(CD7388CZ)</text>
  <text x="525" y="105" class="pin">4-channel Class AB</text>
  <text x="525" y="118" class="pin">4×41W @ 14.4V / 4Ω</text>
  <text x="525" y="131" class="pin">MOSFET output, THD &lt;0.1%</text>
  <text x="525" y="144" class="pin">Heatsink required!</text>
  <text x="525" y="157" class="pin">~45-70 PLN</text>

  <!-- 12V power to TDA7388 -->
  <line x1="525" y1="50" x2="525" y2="35" class="power"/>
  <text x="525" y="30" class="comp">12V / 25A fused (shared)</text>

  <!-- TDA2050 Subwoofer Amplifier -->
  <rect x="430" y="220" width="190" height="100" class="box" fill="#ffe8d0"/>
  <text x="525" y="242" class="label" font-weight="bold">TDA2050</text>
  <text x="525" y="257" class="pin">Mono Class AB</text>
  <text x="525" y="270" class="pin">32W @ 4Ω</text>
  <text x="525" y="283" class="pin">Clean musical output</text>
  <text x="525" y="296" class="pin">Small heatsink needed</text>
  <text x="525" y="309" class="pin">~20-30 PLN</text>

  <!-- 12V power to TDA2050 -->
  <line x1="525" y1="220" x2="525" y2="205" class="power"/>
  <text x="525" y="200" class="comp">12V (shared fuse)</text>

  <!-- Speakers from TDA7388 -->
  <rect x="680" y="35" width="130" height="35" class="box" fill="#e0ffe0"/>
  <text x="745" y="52" class="label">Front Left</text>
  <text x="745" y="64" class="pin">Door speaker 4Ω</text>
  <line x1="620" y1="75" x2="680" y2="52" class="audio"/>

  <rect x="680" y="80" width="130" height="35" class="box" fill="#e0ffe0"/>
  <text x="745" y="97" class="label">Front Right</text>
  <text x="745" y="109" class="pin">Door speaker 4Ω</text>
  <line x1="620" y1="90" x2="680" y2="97" class="audio"/>

  <rect x="680" y="125" width="130" height="35" class="box" fill="#e0ffe0"/>
  <text x="745" y="142" class="label">Rear Left</text>
  <text x="745" y="154" class="pin">Shelf speaker 4Ω</text>
  <line x1="620" y1="110" x2="680" y2="142" class="audio"/>

  <rect x="680" y="170" width="130" height="35" class="box" fill="#e0ffe0"/>
  <text x="745" y="187" class="label">Rear Right</text>
  <text x="745" y="199" class="pin">Shelf speaker 4Ω</text>
  <line x1="620" y1="130" x2="680" y2="187" class="audio"/>

  <!-- Subwoofer from TDA2050 -->
  <rect x="680" y="245" width="130" height="50" class="box" fill="#ffe0e0"/>
  <text x="745" y="267" class="label" font-weight="bold">Subwoofer</text>
  <text x="745" y="282" class="pin">Trunk mount 4Ω</text>
  <line x1="620" y1="270" x2="680" y2="270" class="audio"/>

  <!-- Notes box -->
  <rect x="20" y="350" width="920" height="110" fill="#f8f8ff" stroke="#ccc" rx="4"/>
  <text x="40" y="370" class="note" font-weight="bold">Signal chain:</text>
  <text x="40" y="385" class="note">Audio Source → PipeWire (mix/EQ/duck) → ES9038Q2M USB DAC → RCA → TDA7388 (4ch) + TDA2050 (sub) → Speakers</text>
  <text x="40" y="405" class="note" font-weight="bold">Audio ducking:</text>
  <text x="40" y="420" class="note">Parking beeps -18dB | Voice announcements -12dB (+3dB boost) | Phone calls -15dB | 1s smooth fade-back</text>
  <text x="40" y="440" class="note" font-weight="bold">Budget breakdown (~105-160 PLN):</text>
  <text x="40" y="455" class="note">ES9038Q2M DAC ~45-75 PLN | TDA7388 board ~45-70 PLN | TDA2050 board ~20-30 PLN | Heatsink ~15-25 PLN</text>
</svg>
